<?xml version="1.0" encoding="utf-8" standalone="no"?>
<!DOCTYPE svg PUBLIC "-//W3C//DTD SVG 1.1//EN"
  "http://www.w3.org/Graphics/SVG/1.1/DTD/svg11.dtd">
<svg xmlns:xlink="http://www.w3.org/1999/xlink" width="720pt" height="432pt" viewBox="0 0 720 432" xmlns="http://www.w3.org/2000/svg" version="1.1">
 <metadata>
  <rdf:RDF xmlns:dc="http://purl.org/dc/elements/1.1/" xmlns:cc="http://creativecommons.org/ns#" xmlns:rdf="http://www.w3.org/1999/02/22-rdf-syntax-ns#">
   <cc:Work>
    <dc:type rdf:resource="http://purl.org/dc/dcmitype/StillImage"/>
    <dc:date>2024-12-28T14:46:11.487228</dc:date>
    <dc:format>image/svg+xml</dc:format>
    <dc:creator>
     <cc:Agent>
      <dc:title>Matplotlib v3.9.3, https://matplotlib.org/</dc:title>
     </cc:Agent>
    </dc:creator>
   </cc:Work>
  </rdf:RDF>
 </metadata>
 <defs>
  <style type="text/css">*{stroke-linejoin: round; stroke-linecap: butt}</style>
 </defs>
 <g id="figure_1">
  <g id="patch_1">
   <path d="M 0 432 
L 720 432 
L 720 0 
L 0 0 
z
" style="fill: #ffffff"/>
  </g>
  <g id="axes_1">
   <g id="patch_2">
    <path d="M 90 384.48 
L 648 384.48 
L 648 51.84 
L 90 51.84 
z
" style="fill: #ffffff"/>
   </g>
   <g id="PathCollection_1">
    <defs>
     <path id="m738ab2a05e" d="M 0 1.581139 
C 0.419323 1.581139 0.821528 1.41454 1.118034 1.118034 
C 1.41454 0.821528 1.581139 0.419323 1.581139 0 
C 1.581139 -0.419323 1.41454 -0.821528 1.118034 -1.118034 
C 0.821528 -1.41454 0.419323 -1.581139 0 -1.581139 
C -0.419323 -1.581139 -0.821528 -1.41454 -1.118034 -1.118034 
C -1.41454 -0.821528 -1.581139 -0.419323 -1.581139 0 
C -1.581139 0.419323 -1.41454 0.821528 -1.118034 1.118034 
C -0.821528 1.41454 -0.419323 1.581139 0 1.581139 
z
" style="stroke: #ff0000"/>
    </defs>
    <g clip-path="url(#p5631ba5d14)">
     <use xlink:href="#m738ab2a05e" x="115.363636" y="330.887273" style="fill: #ff0000; stroke: #ff0000"/>
     <use xlink:href="#m738ab2a05e" x="149.181818" y="330.887273" style="fill: #ff0000; stroke: #ff0000"/>
     <use xlink:href="#m738ab2a05e" x="183" y="330.887273" style="fill: #ff0000; stroke: #ff0000"/>
     <use xlink:href="#m738ab2a05e" x="216.818182" y="330.887273" style="fill: #ff0000; stroke: #ff0000"/>
     <use xlink:href="#m738ab2a05e" x="250.636364" y="330.887273" style="fill: #ff0000; stroke: #ff0000"/>
     <use xlink:href="#m738ab2a05e" x="284.454545" y="330.887273" style="fill: #ff0000; stroke: #ff0000"/>
     <use xlink:href="#m738ab2a05e" x="318.272727" y="330.887273" style="fill: #ff0000; stroke: #ff0000"/>
     <use xlink:href="#m738ab2a05e" x="352.090909" y="330.887273" style="fill: #ff0000; stroke: #ff0000"/>
     <use xlink:href="#m738ab2a05e" x="385.909091" y="330.887273" style="fill: #ff0000; stroke: #ff0000"/>
     <use xlink:href="#m738ab2a05e" x="419.727273" y="330.887273" style="fill: #ff0000; stroke: #ff0000"/>
     <use xlink:href="#m738ab2a05e" x="453.545455" y="330.887273" style="fill: #ff0000; stroke: #ff0000"/>
     <use xlink:href="#m738ab2a05e" x="487.363636" y="330.887273" style="fill: #ff0000; stroke: #ff0000"/>
     <use xlink:href="#m738ab2a05e" x="521.181818" y="330.887273" style="fill: #ff0000; stroke: #ff0000"/>
     <use xlink:href="#m738ab2a05e" x="555" y="330.887273" style="fill: #ff0000; stroke: #ff0000"/>
     <use xlink:href="#m738ab2a05e" x="588.818182" y="330.887273" style="fill: #ff0000; stroke: #ff0000"/>
     <use xlink:href="#m738ab2a05e" x="622.636364" y="330.887273" style="fill: #ff0000; stroke: #ff0000"/>
     <use xlink:href="#m738ab2a05e" x="115.363636" y="285.796364" style="fill: #ff0000; stroke: #ff0000"/>
     <use xlink:href="#m738ab2a05e" x="149.181818" y="285.796364" style="fill: #ff0000; stroke: #ff0000"/>
     <use xlink:href="#m738ab2a05e" x="183" y="285.796364" style="fill: #ff0000; stroke: #ff0000"/>
     <use xlink:href="#m738ab2a05e" x="216.818182" y="285.796364" style="fill: #ff0000; stroke: #ff0000"/>
     <use xlink:href="#m738ab2a05e" x="250.636364" y="285.796364" style="fill: #ff0000; stroke: #ff0000"/>
     <use xlink:href="#m738ab2a05e" x="284.454545" y="285.796364" style="fill: #ff0000; stroke: #ff0000"/>
     <use xlink:href="#m738ab2a05e" x="318.272727" y="290.305455" style="fill: #ff0000; stroke: #ff0000"/>
     <use xlink:href="#m738ab2a05e" x="352.090909" y="294.814545" style="fill: #ff0000; stroke: #ff0000"/>
     <use xlink:href="#m738ab2a05e" x="385.909091" y="299.323636" style="fill: #ff0000; stroke: #ff0000"/>
     <use xlink:href="#m738ab2a05e" x="419.727273" y="303.832727" style="fill: #ff0000; stroke: #ff0000"/>
     <use xlink:href="#m738ab2a05e" x="453.545455" y="308.341818" style="fill: #ff0000; stroke: #ff0000"/>
     <use xlink:href="#m738ab2a05e" x="487.363636" y="308.341818" style="fill: #ff0000; stroke: #ff0000"/>
     <use xlink:href="#m738ab2a05e" x="521.181818" y="308.341818" style="fill: #ff0000; stroke: #ff0000"/>
     <use xlink:href="#m738ab2a05e" x="555" y="308.341818" style="fill: #ff0000; stroke: #ff0000"/>
     <use xlink:href="#m738ab2a05e" x="588.818182" y="308.341818" style="fill: #ff0000; stroke: #ff0000"/>
     <use xlink:href="#m738ab2a05e" x="622.636364" y="308.341818" style="fill: #ff0000; stroke: #ff0000"/>
     <use xlink:href="#m738ab2a05e" x="115.363636" y="240.705455" style="fill: #ff0000; stroke: #ff0000"/>
     <use xlink:href="#m738ab2a05e" x="149.181818" y="240.705455" style="fill: #ff0000; stroke: #ff0000"/>
     <use xlink:href="#m738ab2a05e" x="183" y="240.705455" style="fill: #ff0000; stroke: #ff0000"/>
     <use xlink:href="#m738ab2a05e" x="216.818182" y="240.705455" style="fill: #ff0000; stroke: #ff0000"/>
     <use xlink:href="#m738ab2a05e" x="250.636364" y="240.705455" style="fill: #ff0000; stroke: #ff0000"/>
     <use xlink:href="#m738ab2a05e" x="284.454545" y="240.705455" style="fill: #ff0000; stroke: #ff0000"/>
     <use xlink:href="#m738ab2a05e" x="318.272727" y="249.723636" style="fill: #ff0000; stroke: #ff0000"/>
     <use xlink:href="#m738ab2a05e" x="352.090909" y="258.741818" style="fill: #ff0000; stroke: #ff0000"/>
     <use xlink:href="#m738ab2a05e" x="385.909091" y="267.76" style="fill: #ff0000; stroke: #ff0000"/>
     <use xlink:href="#m738ab2a05e" x="419.727273" y="276.778182" style="fill: #ff0000; stroke: #ff0000"/>
     <use xlink:href="#m738ab2a05e" x="453.545455" y="285.796364" style="fill: #ff0000; stroke: #ff0000"/>
     <use xlink:href="#m738ab2a05e" x="487.363636" y="285.796364" style="fill: #ff0000; stroke: #ff0000"/>
     <use xlink:href="#m738ab2a05e" x="521.181818" y="285.796364" style="fill: #ff0000; stroke: #ff0000"/>
     <use xlink:href="#m738ab2a05e" x="555" y="285.796364" style="fill: #ff0000; stroke: #ff0000"/>
     <use xlink:href="#m738ab2a05e" x="588.818182" y="285.796364" style="fill: #ff0000; stroke: #ff0000"/>
     <use xlink:href="#m738ab2a05e" x="622.636364" y="285.796364" style="fill: #ff0000; stroke: #ff0000"/>
     <use xlink:href="#m738ab2a05e" x="115.363636" y="195.614545" style="fill: #ff0000; stroke: #ff0000"/>
     <use xlink:href="#m738ab2a05e" x="149.181818" y="195.614545" style="fill: #ff0000; stroke: #ff0000"/>
     <use xlink:href="#m738ab2a05e" x="183" y="195.614545" style="fill: #ff0000; stroke: #ff0000"/>
     <use xlink:href="#m738ab2a05e" x="216.818182" y="195.614545" style="fill: #ff0000; stroke: #ff0000"/>
     <use xlink:href="#m738ab2a05e" x="250.636364" y="195.614545" style="fill: #ff0000; stroke: #ff0000"/>
     <use xlink:href="#m738ab2a05e" x="284.454545" y="195.614545" style="fill: #ff0000; stroke: #ff0000"/>
     <use xlink:href="#m738ab2a05e" x="318.272727" y="209.141818" style="fill: #ff0000; stroke: #ff0000"/>
     <use xlink:href="#m738ab2a05e" x="352.090909" y="222.669091" style="fill: #ff0000; stroke: #ff0000"/>
     <use xlink:href="#m738ab2a05e" x="385.909091" y="236.196364" style="fill: #ff0000; stroke: #ff0000"/>
     <use xlink:href="#m738ab2a05e" x="419.727273" y="249.723636" style="fill: #ff0000; stroke: #ff0000"/>
     <use xlink:href="#m738ab2a05e" x="453.545455" y="263.250909" style="fill: #ff0000; stroke: #ff0000"/>
     <use xlink:href="#m738ab2a05e" x="487.363636" y="263.250909" style="fill: #ff0000; stroke: #ff0000"/>
     <use xlink:href="#m738ab2a05e" x="521.181818" y="263.250909" style="fill: #ff0000; stroke: #ff0000"/>
     <use xlink:href="#m738ab2a05e" x="555" y="263.250909" style="fill: #ff0000; stroke: #ff0000"/>
     <use xlink:href="#m738ab2a05e" x="588.818182" y="263.250909" style="fill: #ff0000; stroke: #ff0000"/>
     <use xlink:href="#m738ab2a05e" x="622.636364" y="263.250909" style="fill: #ff0000; stroke: #ff0000"/>
     <use xlink:href="#m738ab2a05e" x="115.363636" y="150.523636" style="fill: #ff0000; stroke: #ff0000"/>
     <use xlink:href="#m738ab2a05e" x="149.181818" y="150.523636" style="fill: #ff0000; stroke: #ff0000"/>
     <use xlink:href="#m738ab2a05e" x="183" y="150.523636" style="fill: #ff0000; stroke: #ff0000"/>
     <use xlink:href="#m738ab2a05e" x="216.818182" y="150.523636" style="fill: #ff0000; stroke: #ff0000"/>
     <use xlink:href="#m738ab2a05e" x="250.636364" y="150.523636" style="fill: #ff0000; stroke: #ff0000"/>
     <use xlink:href="#m738ab2a05e" x="284.454545" y="150.523636" style="fill: #ff0000; stroke: #ff0000"/>
     <use xlink:href="#m738ab2a05e" x="318.272727" y="168.56" style="fill: #ff0000; stroke: #ff0000"/>
     <use xlink:href="#m738ab2a05e" x="352.090909" y="186.596364" style="fill: #ff0000; stroke: #ff0000"/>
     <use xlink:href="#m738ab2a05e" x="385.909091" y="204.632727" style="fill: #ff0000; stroke: #ff0000"/>
     <use xlink:href="#m738ab2a05e" x="419.727273" y="222.669091" style="fill: #ff0000; stroke: #ff0000"/>
     <use xlink:href="#m738ab2a05e" x="453.545455" y="240.705455" style="fill: #ff0000; stroke: #ff0000"/>
     <use xlink:href="#m738ab2a05e" x="487.363636" y="240.705455" style="fill: #ff0000; stroke: #ff0000"/>
     <use xlink:href="#m738ab2a05e" x="521.181818" y="240.705455" style="fill: #ff0000; stroke: #ff0000"/>
     <use xlink:href="#m738ab2a05e" x="555" y="240.705455" style="fill: #ff0000; stroke: #ff0000"/>
     <use xlink:href="#m738ab2a05e" x="588.818182" y="240.705455" style="fill: #ff0000; stroke: #ff0000"/>
     <use xlink:href="#m738ab2a05e" x="622.636364" y="240.705455" style="fill: #ff0000; stroke: #ff0000"/>
     <use xlink:href="#m738ab2a05e" x="115.363636" y="105.432727" style="fill: #ff0000; stroke: #ff0000"/>
     <use xlink:href="#m738ab2a05e" x="149.181818" y="105.432727" style="fill: #ff0000; stroke: #ff0000"/>
     <use xlink:href="#m738ab2a05e" x="183" y="105.432727" style="fill: #ff0000; stroke: #ff0000"/>
     <use xlink:href="#m738ab2a05e" x="216.818182" y="105.432727" style="fill: #ff0000; stroke: #ff0000"/>
     <use xlink:href="#m738ab2a05e" x="250.636364" y="105.432727" style="fill: #ff0000; stroke: #ff0000"/>
     <use xlink:href="#m738ab2a05e" x="284.454545" y="105.432727" style="fill: #ff0000; stroke: #ff0000"/>
     <use xlink:href="#m738ab2a05e" x="318.272727" y="127.978182" style="fill: #ff0000; stroke: #ff0000"/>
     <use xlink:href="#m738ab2a05e" x="352.090909" y="150.523636" style="fill: #ff0000; stroke: #ff0000"/>
     <use xlink:href="#m738ab2a05e" x="385.909091" y="173.069091" style="fill: #ff0000; stroke: #ff0000"/>
     <use xlink:href="#m738ab2a05e" x="419.727273" y="195.614545" style="fill: #ff0000; stroke: #ff0000"/>
     <use xlink:href="#m738ab2a05e" x="453.545455" y="218.16" style="fill: #ff0000; stroke: #ff0000"/>
     <use xlink:href="#m738ab2a05e" x="487.363636" y="218.16" style="fill: #ff0000; stroke: #ff0000"/>
     <use xlink:href="#m738ab2a05e" x="521.181818" y="218.16" style="fill: #ff0000; stroke: #ff0000"/>
     <use xlink:href="#m738ab2a05e" x="555" y="218.16" style="fill: #ff0000; stroke: #ff0000"/>
     <use xlink:href="#m738ab2a05e" x="588.818182" y="218.16" style="fill: #ff0000; stroke: #ff0000"/>
     <use xlink:href="#m738ab2a05e" x="622.636364" y="218.16" style="fill: #ff0000; stroke: #ff0000"/>
    </g>
   </g>
   <g id="matplotlib.axis_1">
    <g id="text_1">
     <!-- H (Height) -->
     <g transform="translate(343.220312 396.078438) scale(0.1 -0.1)">
      <defs>
       <path id="DejaVuSans-48" d="M 628 4666 
L 1259 4666 
L 1259 2753 
L 3553 2753 
L 3553 4666 
L 4184 4666 
L 4184 0 
L 3553 0 
L 3553 2222 
L 1259 2222 
L 1259 0 
L 628 0 
L 628 4666 
z
" transform="scale(0.015625)"/>
       <path id="DejaVuSans-20" transform="scale(0.015625)"/>
       <path id="DejaVuSans-28" d="M 1984 4856 
Q 1566 4138 1362 3434 
Q 1159 2731 1159 2009 
Q 1159 1288 1364 580 
Q 1569 -128 1984 -844 
L 1484 -844 
Q 1016 -109 783 600 
Q 550 1309 550 2009 
Q 550 2706 781 3412 
Q 1013 4119 1484 4856 
L 1984 4856 
z
" transform="scale(0.015625)"/>
       <path id="DejaVuSans-65" d="M 3597 1894 
L 3597 1613 
L 953 1613 
Q 991 1019 1311 708 
Q 1631 397 2203 397 
Q 2534 397 2845 478 
Q 3156 559 3463 722 
L 3463 178 
Q 3153 47 2828 -22 
Q 2503 -91 2169 -91 
Q 1331 -91 842 396 
Q 353 884 353 1716 
Q 353 2575 817 3079 
Q 1281 3584 2069 3584 
Q 2775 3584 3186 3129 
Q 3597 2675 3597 1894 
z
M 3022 2063 
Q 3016 2534 2758 2815 
Q 2500 3097 2075 3097 
Q 1594 3097 1305 2825 
Q 1016 2553 972 2059 
L 3022 2063 
z
" transform="scale(0.015625)"/>
       <path id="DejaVuSans-69" d="M 603 3500 
L 1178 3500 
L 1178 0 
L 603 0 
L 603 3500 
z
M 603 4863 
L 1178 4863 
L 1178 4134 
L 603 4134 
L 603 4863 
z
" transform="scale(0.015625)"/>
       <path id="DejaVuSans-67" d="M 2906 1791 
Q 2906 2416 2648 2759 
Q 2391 3103 1925 3103 
Q 1463 3103 1205 2759 
Q 947 2416 947 1791 
Q 947 1169 1205 825 
Q 1463 481 1925 481 
Q 2391 481 2648 825 
Q 2906 1169 2906 1791 
z
M 3481 434 
Q 3481 -459 3084 -895 
Q 2688 -1331 1869 -1331 
Q 1566 -1331 1297 -1286 
Q 1028 -1241 775 -1147 
L 775 -588 
Q 1028 -725 1275 -790 
Q 1522 -856 1778 -856 
Q 2344 -856 2625 -561 
Q 2906 -266 2906 331 
L 2906 616 
Q 2728 306 2450 153 
Q 2172 0 1784 0 
Q 1141 0 747 490 
Q 353 981 353 1791 
Q 353 2603 747 3093 
Q 1141 3584 1784 3584 
Q 2172 3584 2450 3431 
Q 2728 3278 2906 2969 
L 2906 3500 
L 3481 3500 
L 3481 434 
z
" transform="scale(0.015625)"/>
       <path id="DejaVuSans-68" d="M 3513 2113 
L 3513 0 
L 2938 0 
L 2938 2094 
Q 2938 2591 2744 2837 
Q 2550 3084 2163 3084 
Q 1697 3084 1428 2787 
Q 1159 2491 1159 1978 
L 1159 0 
L 581 0 
L 581 4863 
L 1159 4863 
L 1159 2956 
Q 1366 3272 1645 3428 
Q 1925 3584 2291 3584 
Q 2894 3584 3203 3211 
Q 3513 2838 3513 2113 
z
" transform="scale(0.015625)"/>
       <path id="DejaVuSans-74" d="M 1172 4494 
L 1172 3500 
L 2356 3500 
L 2356 3053 
L 1172 3053 
L 1172 1153 
Q 1172 725 1289 603 
Q 1406 481 1766 481 
L 2356 481 
L 2356 0 
L 1766 0 
Q 1100 0 847 248 
Q 594 497 594 1153 
L 594 3053 
L 172 3053 
L 172 3500 
L 594 3500 
L 594 4494 
L 1172 4494 
z
" transform="scale(0.015625)"/>
       <path id="DejaVuSans-29" d="M 513 4856 
L 1013 4856 
Q 1481 4119 1714 3412 
Q 1947 2706 1947 2009 
Q 1947 1309 1714 600 
Q 1481 -109 1013 -844 
L 513 -844 
Q 928 -128 1133 580 
Q 1338 1288 1338 2009 
Q 1338 2731 1133 3434 
Q 928 4138 513 4856 
z
" transform="scale(0.015625)"/>
      </defs>
      <use xlink:href="#DejaVuSans-48"/>
      <use xlink:href="#DejaVuSans-20" x="75.195312"/>
      <use xlink:href="#DejaVuSans-28" x="106.982422"/>
      <use xlink:href="#DejaVuSans-48" x="145.996094"/>
      <use xlink:href="#DejaVuSans-65" x="221.191406"/>
      <use xlink:href="#DejaVuSans-69" x="282.714844"/>
      <use xlink:href="#DejaVuSans-67" x="310.498047"/>
      <use xlink:href="#DejaVuSans-68" x="373.974609"/>
      <use xlink:href="#DejaVuSans-74" x="437.353516"/>
      <use xlink:href="#DejaVuSans-29" x="476.5625"/>
     </g>
    </g>
   </g>
   <g id="matplotlib.axis_2">
    <g id="text_2">
     <!-- L (Length) -->
     <g transform="translate(83.920312 243.683437) rotate(-90) scale(0.1 -0.1)">
      <defs>
       <path id="DejaVuSans-4c" d="M 628 4666 
L 1259 4666 
L 1259 531 
L 3531 531 
L 3531 0 
L 628 0 
L 628 4666 
z
" transform="scale(0.015625)"/>
       <path id="DejaVuSans-6e" d="M 3513 2113 
L 3513 0 
L 2938 0 
L 2938 2094 
Q 2938 2591 2744 2837 
Q 2550 3084 2163 3084 
Q 1697 3084 1428 2787 
Q 1159 2491 1159 1978 
L 1159 0 
L 581 0 
L 581 3500 
L 1159 3500 
L 1159 2956 
Q 1366 3272 1645 3428 
Q 1925 3584 2291 3584 
Q 2894 3584 3203 3211 
Q 3513 2838 3513 2113 
z
" transform="scale(0.015625)"/>
      </defs>
      <use xlink:href="#DejaVuSans-4c"/>
      <use xlink:href="#DejaVuSans-20" x="55.712891"/>
      <use xlink:href="#DejaVuSans-28" x="87.5"/>
      <use xlink:href="#DejaVuSans-4c" x="126.513672"/>
      <use xlink:href="#DejaVuSans-65" x="180.476562"/>
      <use xlink:href="#DejaVuSans-6e" x="242"/>
      <use xlink:href="#DejaVuSans-67" x="305.378906"/>
      <use xlink:href="#DejaVuSans-74" x="368.855469"/>
      <use xlink:href="#DejaVuSans-68" x="408.064453"/>
      <use xlink:href="#DejaVuSans-29" x="471.443359"/>
     </g>
    </g>
   </g>
   <g id="line2d_1">
    <path d="M 115.363636 330.887273 
L 149.181818 330.887273 
L 183 330.887273 
L 216.818182 330.887273 
L 250.636364 330.887273 
L 284.454545 330.887273 
L 318.272727 330.887273 
L 352.090909 330.887273 
L 385.909091 330.887273 
L 419.727273 330.887273 
L 453.545455 330.887273 
L 487.363636 330.887273 
L 521.181818 330.887273 
L 555 330.887273 
L 588.818182 330.887273 
L 622.636364 330.887273 
" clip-path="url(#p5631ba5d14)" style="fill: none; stroke: #000000; stroke-linecap: square"/>
   </g>
   <g id="line2d_2">
    <path d="M 115.363636 285.796364 
L 149.181818 285.796364 
L 183 285.796364 
L 216.818182 285.796364 
L 250.636364 285.796364 
L 284.454545 285.796364 
L 318.272727 290.305455 
L 352.090909 294.814545 
L 385.909091 299.323636 
L 419.727273 303.832727 
L 453.545455 308.341818 
L 487.363636 308.341818 
L 521.181818 308.341818 
L 555 308.341818 
L 588.818182 308.341818 
L 622.636364 308.341818 
" clip-path="url(#p5631ba5d14)" style="fill: none; stroke: #000000; stroke-linecap: square"/>
   </g>
   <g id="line2d_3">
    <path d="M 115.363636 240.705455 
L 149.181818 240.705455 
L 183 240.705455 
L 216.818182 240.705455 
L 250.636364 240.705455 
L 284.454545 240.705455 
L 318.272727 249.723636 
L 352.090909 258.741818 
L 385.909091 267.76 
L 419.727273 276.778182 
L 453.545455 285.796364 
L 487.363636 285.796364 
L 521.181818 285.796364 
L 555 285.796364 
L 588.818182 285.796364 
L 622.636364 285.796364 
" clip-path="url(#p5631ba5d14)" style="fill: none; stroke: #000000; stroke-linecap: square"/>
   </g>
   <g id="line2d_4">
    <path d="M 115.363636 195.614545 
L 149.181818 195.614545 
L 183 195.614545 
L 216.818182 195.614545 
L 250.636364 195.614545 
L 284.454545 195.614545 
L 318.272727 209.141818 
L 352.090909 222.669091 
L 385.909091 236.196364 
L 419.727273 249.723636 
L 453.545455 263.250909 
L 487.363636 263.250909 
L 521.181818 263.250909 
L 555 263.250909 
L 588.818182 263.250909 
L 622.636364 263.250909 
" clip-path="url(#p5631ba5d14)" style="fill: none; stroke: #000000; stroke-linecap: square"/>
   </g>
   <g id="line2d_5">
    <path d="M 115.363636 150.523636 
L 149.181818 150.523636 
L 183 150.523636 
L 216.818182 150.523636 
L 250.636364 150.523636 
L 284.454545 150.523636 
L 318.272727 168.56 
L 352.090909 186.596364 
L 385.909091 204.632727 
L 419.727273 222.669091 
L 453.545455 240.705455 
L 487.363636 240.705455 
L 521.181818 240.705455 
L 555 240.705455 
L 588.818182 240.705455 
L 622.636364 240.705455 
" clip-path="url(#p5631ba5d14)" style="fill: none; stroke: #000000; stroke-linecap: square"/>
   </g>
   <g id="line2d_6">
    <path d="M 115.363636 105.432727 
L 149.181818 105.432727 
L 183 105.432727 
L 216.818182 105.432727 
L 250.636364 105.432727 
L 284.454545 105.432727 
L 318.272727 127.978182 
L 352.090909 150.523636 
L 385.909091 173.069091 
L 419.727273 195.614545 
L 453.545455 218.16 
L 487.363636 218.16 
L 521.181818 218.16 
L 555 218.16 
L 588.818182 218.16 
L 622.636364 218.16 
" clip-path="url(#p5631ba5d14)" style="fill: none; stroke: #000000; stroke-linecap: square"/>
   </g>
   <g id="line2d_7">
    <path d="M 115.363636 330.887273 
L 115.363636 285.796364 
L 115.363636 240.705455 
L 115.363636 195.614545 
L 115.363636 150.523636 
L 115.363636 105.432727 
" clip-path="url(#p5631ba5d14)" style="fill: none; stroke: #000000; stroke-linecap: square"/>
   </g>
   <g id="line2d_8">
    <path d="M 149.181818 330.887273 
L 149.181818 285.796364 
L 149.181818 240.705455 
L 149.181818 195.614545 
L 149.181818 150.523636 
L 149.181818 105.432727 
" clip-path="url(#p5631ba5d14)" style="fill: none; stroke: #000000; stroke-linecap: square"/>
   </g>
   <g id="line2d_9">
    <path d="M 183 330.887273 
L 183 285.796364 
L 183 240.705455 
L 183 195.614545 
L 183 150.523636 
L 183 105.432727 
" clip-path="url(#p5631ba5d14)" style="fill: none; stroke: #000000; stroke-linecap: square"/>
   </g>
   <g id="line2d_10">
    <path d="M 216.818182 330.887273 
L 216.818182 285.796364 
L 216.818182 240.705455 
L 216.818182 195.614545 
L 216.818182 150.523636 
L 216.818182 105.432727 
" clip-path="url(#p5631ba5d14)" style="fill: none; stroke: #000000; stroke-linecap: square"/>
   </g>
   <g id="line2d_11">
    <path d="M 250.636364 330.887273 
L 250.636364 285.796364 
L 250.636364 240.705455 
L 250.636364 195.614545 
L 250.636364 150.523636 
L 250.636364 105.432727 
" clip-path="url(#p5631ba5d14)" style="fill: none; stroke: #000000; stroke-linecap: square"/>
   </g>
   <g id="line2d_12">
    <path d="M 284.454545 330.887273 
L 284.454545 285.796364 
L 284.454545 240.705455 
L 284.454545 195.614545 
L 284.454545 150.523636 
L 284.454545 105.432727 
" clip-path="url(#p5631ba5d14)" style="fill: none; stroke: #000000; stroke-linecap: square"/>
   </g>
   <g id="line2d_13">
    <path d="M 318.272727 330.887273 
L 318.272727 290.305455 
L 318.272727 249.723636 
L 318.272727 209.141818 
L 318.272727 168.56 
L 318.272727 127.978182 
" clip-path="url(#p5631ba5d14)" style="fill: none; stroke: #000000; stroke-linecap: square"/>
   </g>
   <g id="line2d_14">
    <path d="M 352.090909 330.887273 
L 352.090909 294.814545 
L 352.090909 258.741818 
L 352.090909 222.669091 
L 352.090909 186.596364 
L 352.090909 150.523636 
" clip-path="url(#p5631ba5d14)" style="fill: none; stroke: #000000; stroke-linecap: square"/>
   </g>
   <g id="line2d_15">
    <path d="M 385.909091 330.887273 
L 385.909091 299.323636 
L 385.909091 267.76 
L 385.909091 236.196364 
L 385.909091 204.632727 
L 385.909091 173.069091 
" clip-path="url(#p5631ba5d14)" style="fill: none; stroke: #000000; stroke-linecap: square"/>
   </g>
   <g id="line2d_16">
    <path d="M 419.727273 330.887273 
L 419.727273 303.832727 
L 419.727273 276.778182 
L 419.727273 249.723636 
L 419.727273 222.669091 
L 419.727273 195.614545 
" clip-path="url(#p5631ba5d14)" style="fill: none; stroke: #000000; stroke-linecap: square"/>
   </g>
   <g id="line2d_17">
    <path d="M 453.545455 330.887273 
L 453.545455 308.341818 
L 453.545455 285.796364 
L 453.545455 263.250909 
L 453.545455 240.705455 
L 453.545455 218.16 
" clip-path="url(#p5631ba5d14)" style="fill: none; stroke: #000000; stroke-linecap: square"/>
   </g>
   <g id="line2d_18">
    <path d="M 487.363636 330.887273 
L 487.363636 308.341818 
L 487.363636 285.796364 
L 487.363636 263.250909 
L 487.363636 240.705455 
L 487.363636 218.16 
" clip-path="url(#p5631ba5d14)" style="fill: none; stroke: #000000; stroke-linecap: square"/>
   </g>
   <g id="line2d_19">
    <path d="M 521.181818 330.887273 
L 521.181818 308.341818 
L 521.181818 285.796364 
L 521.181818 263.250909 
L 521.181818 240.705455 
L 521.181818 218.16 
" clip-path="url(#p5631ba5d14)" style="fill: none; stroke: #000000; stroke-linecap: square"/>
   </g>
   <g id="line2d_20">
    <path d="M 555 330.887273 
L 555 308.341818 
L 555 285.796364 
L 555 263.250909 
L 555 240.705455 
L 555 218.16 
" clip-path="url(#p5631ba5d14)" style="fill: none; stroke: #000000; stroke-linecap: square"/>
   </g>
   <g id="line2d_21">
    <path d="M 588.818182 330.887273 
L 588.818182 308.341818 
L 588.818182 285.796364 
L 588.818182 263.250909 
L 588.818182 240.705455 
L 588.818182 218.16 
" clip-path="url(#p5631ba5d14)" style="fill: none; stroke: #000000; stroke-linecap: square"/>
   </g>
   <g id="line2d_22">
    <path d="M 622.636364 330.887273 
L 622.636364 308.341818 
L 622.636364 285.796364 
L 622.636364 263.250909 
L 622.636364 240.705455 
L 622.636364 218.16 
" clip-path="url(#p5631ba5d14)" style="fill: none; stroke: #000000; stroke-linecap: square"/>
   </g>
   <g id="patch_3">
    <path d="M 90 384.48 
L 90 51.84 
" style="fill: none; stroke: #000000; stroke-width: 0.8; stroke-linejoin: miter; stroke-linecap: square"/>
   </g>
   <g id="patch_4">
    <path d="M 648 384.48 
L 648 51.84 
" style="fill: none; stroke: #000000; stroke-width: 0.8; stroke-linejoin: miter; stroke-linecap: square"/>
   </g>
   <g id="patch_5">
    <path d="M 90 384.48 
L 648 384.48 
" style="fill: none; stroke: #000000; stroke-width: 0.8; stroke-linejoin: miter; stroke-linecap: square"/>
   </g>
   <g id="patch_6">
    <path d="M 90 51.84 
L 648 51.84 
" style="fill: none; stroke: #000000; stroke-width: 0.8; stroke-linejoin: miter; stroke-linecap: square"/>
   </g>
   <g id="text_3">
    <!-- Structured Grid: Rectangular + Oblique + Rectangular -->
    <g transform="translate(205.7175 45.84) scale(0.12 -0.12)">
     <defs>
      <path id="DejaVuSans-53" d="M 3425 4513 
L 3425 3897 
Q 3066 4069 2747 4153 
Q 2428 4238 2131 4238 
Q 1616 4238 1336 4038 
Q 1056 3838 1056 3469 
Q 1056 3159 1242 3001 
Q 1428 2844 1947 2747 
L 2328 2669 
Q 3034 2534 3370 2195 
Q 3706 1856 3706 1288 
Q 3706 609 3251 259 
Q 2797 -91 1919 -91 
Q 1588 -91 1214 -16 
Q 841 59 441 206 
L 441 856 
Q 825 641 1194 531 
Q 1563 422 1919 422 
Q 2459 422 2753 634 
Q 3047 847 3047 1241 
Q 3047 1584 2836 1778 
Q 2625 1972 2144 2069 
L 1759 2144 
Q 1053 2284 737 2584 
Q 422 2884 422 3419 
Q 422 4038 858 4394 
Q 1294 4750 2059 4750 
Q 2388 4750 2728 4690 
Q 3069 4631 3425 4513 
z
" transform="scale(0.015625)"/>
      <path id="DejaVuSans-72" d="M 2631 2963 
Q 2534 3019 2420 3045 
Q 2306 3072 2169 3072 
Q 1681 3072 1420 2755 
Q 1159 2438 1159 1844 
L 1159 0 
L 581 0 
L 581 3500 
L 1159 3500 
L 1159 2956 
Q 1341 3275 1631 3429 
Q 1922 3584 2338 3584 
Q 2397 3584 2469 3576 
Q 2541 3569 2628 3553 
L 2631 2963 
z
" transform="scale(0.015625)"/>
      <path id="DejaVuSans-75" d="M 544 1381 
L 544 3500 
L 1119 3500 
L 1119 1403 
Q 1119 906 1312 657 
Q 1506 409 1894 409 
Q 2359 409 2629 706 
Q 2900 1003 2900 1516 
L 2900 3500 
L 3475 3500 
L 3475 0 
L 2900 0 
L 2900 538 
Q 2691 219 2414 64 
Q 2138 -91 1772 -91 
Q 1169 -91 856 284 
Q 544 659 544 1381 
z
M 1991 3584 
L 1991 3584 
z
" transform="scale(0.015625)"/>
      <path id="DejaVuSans-63" d="M 3122 3366 
L 3122 2828 
Q 2878 2963 2633 3030 
Q 2388 3097 2138 3097 
Q 1578 3097 1268 2742 
Q 959 2388 959 1747 
Q 959 1106 1268 751 
Q 1578 397 2138 397 
Q 2388 397 2633 464 
Q 2878 531 3122 666 
L 3122 134 
Q 2881 22 2623 -34 
Q 2366 -91 2075 -91 
Q 1284 -91 818 406 
Q 353 903 353 1747 
Q 353 2603 823 3093 
Q 1294 3584 2113 3584 
Q 2378 3584 2631 3529 
Q 2884 3475 3122 3366 
z
" transform="scale(0.015625)"/>
      <path id="DejaVuSans-64" d="M 2906 2969 
L 2906 4863 
L 3481 4863 
L 3481 0 
L 2906 0 
L 2906 525 
Q 2725 213 2448 61 
Q 2172 -91 1784 -91 
Q 1150 -91 751 415 
Q 353 922 353 1747 
Q 353 2572 751 3078 
Q 1150 3584 1784 3584 
Q 2172 3584 2448 3432 
Q 2725 3281 2906 2969 
z
M 947 1747 
Q 947 1113 1208 752 
Q 1469 391 1925 391 
Q 2381 391 2643 752 
Q 2906 1113 2906 1747 
Q 2906 2381 2643 2742 
Q 2381 3103 1925 3103 
Q 1469 3103 1208 2742 
Q 947 2381 947 1747 
z
" transform="scale(0.015625)"/>
      <path id="DejaVuSans-47" d="M 3809 666 
L 3809 1919 
L 2778 1919 
L 2778 2438 
L 4434 2438 
L 4434 434 
Q 4069 175 3628 42 
Q 3188 -91 2688 -91 
Q 1594 -91 976 548 
Q 359 1188 359 2328 
Q 359 3472 976 4111 
Q 1594 4750 2688 4750 
Q 3144 4750 3555 4637 
Q 3966 4525 4313 4306 
L 4313 3634 
Q 3963 3931 3569 4081 
Q 3175 4231 2741 4231 
Q 1884 4231 1454 3753 
Q 1025 3275 1025 2328 
Q 1025 1384 1454 906 
Q 1884 428 2741 428 
Q 3075 428 3337 486 
Q 3600 544 3809 666 
z
" transform="scale(0.015625)"/>
      <path id="DejaVuSans-3a" d="M 750 794 
L 1409 794 
L 1409 0 
L 750 0 
L 750 794 
z
M 750 3309 
L 1409 3309 
L 1409 2516 
L 750 2516 
L 750 3309 
z
" transform="scale(0.015625)"/>
      <path id="DejaVuSans-52" d="M 2841 2188 
Q 3044 2119 3236 1894 
Q 3428 1669 3622 1275 
L 4263 0 
L 3584 0 
L 2988 1197 
Q 2756 1666 2539 1819 
Q 2322 1972 1947 1972 
L 1259 1972 
L 1259 0 
L 628 0 
L 628 4666 
L 2053 4666 
Q 2853 4666 3247 4331 
Q 3641 3997 3641 3322 
Q 3641 2881 3436 2590 
Q 3231 2300 2841 2188 
z
M 1259 4147 
L 1259 2491 
L 2053 2491 
Q 2509 2491 2742 2702 
Q 2975 2913 2975 3322 
Q 2975 3731 2742 3939 
Q 2509 4147 2053 4147 
L 1259 4147 
z
" transform="scale(0.015625)"/>
      <path id="DejaVuSans-61" d="M 2194 1759 
Q 1497 1759 1228 1600 
Q 959 1441 959 1056 
Q 959 750 1161 570 
Q 1363 391 1709 391 
Q 2188 391 2477 730 
Q 2766 1069 2766 1631 
L 2766 1759 
L 2194 1759 
z
M 3341 1997 
L 3341 0 
L 2766 0 
L 2766 531 
Q 2569 213 2275 61 
Q 1981 -91 1556 -91 
Q 1019 -91 701 211 
Q 384 513 384 1019 
Q 384 1609 779 1909 
Q 1175 2209 1959 2209 
L 2766 2209 
L 2766 2266 
Q 2766 2663 2505 2880 
Q 2244 3097 1772 3097 
Q 1472 3097 1187 3025 
Q 903 2953 641 2809 
L 641 3341 
Q 956 3463 1253 3523 
Q 1550 3584 1831 3584 
Q 2591 3584 2966 3190 
Q 3341 2797 3341 1997 
z
" transform="scale(0.015625)"/>
      <path id="DejaVuSans-6c" d="M 603 4863 
L 1178 4863 
L 1178 0 
L 603 0 
L 603 4863 
z
" transform="scale(0.015625)"/>
      <path id="DejaVuSans-2b" d="M 2944 4013 
L 2944 2272 
L 4684 2272 
L 4684 1741 
L 2944 1741 
L 2944 0 
L 2419 0 
L 2419 1741 
L 678 1741 
L 678 2272 
L 2419 2272 
L 2419 4013 
L 2944 4013 
z
" transform="scale(0.015625)"/>
      <path id="DejaVuSans-4f" d="M 2522 4238 
Q 1834 4238 1429 3725 
Q 1025 3213 1025 2328 
Q 1025 1447 1429 934 
Q 1834 422 2522 422 
Q 3209 422 3611 934 
Q 4013 1447 4013 2328 
Q 4013 3213 3611 3725 
Q 3209 4238 2522 4238 
z
M 2522 4750 
Q 3503 4750 4090 4092 
Q 4678 3434 4678 2328 
Q 4678 1225 4090 567 
Q 3503 -91 2522 -91 
Q 1538 -91 948 565 
Q 359 1222 359 2328 
Q 359 3434 948 4092 
Q 1538 4750 2522 4750 
z
" transform="scale(0.015625)"/>
      <path id="DejaVuSans-62" d="M 3116 1747 
Q 3116 2381 2855 2742 
Q 2594 3103 2138 3103 
Q 1681 3103 1420 2742 
Q 1159 2381 1159 1747 
Q 1159 1113 1420 752 
Q 1681 391 2138 391 
Q 2594 391 2855 752 
Q 3116 1113 3116 1747 
z
M 1159 2969 
Q 1341 3281 1617 3432 
Q 1894 3584 2278 3584 
Q 2916 3584 3314 3078 
Q 3713 2572 3713 1747 
Q 3713 922 3314 415 
Q 2916 -91 2278 -91 
Q 1894 -91 1617 61 
Q 1341 213 1159 525 
L 1159 0 
L 581 0 
L 581 4863 
L 1159 4863 
L 1159 2969 
z
" transform="scale(0.015625)"/>
      <path id="DejaVuSans-71" d="M 947 1747 
Q 947 1113 1208 752 
Q 1469 391 1925 391 
Q 2381 391 2643 752 
Q 2906 1113 2906 1747 
Q 2906 2381 2643 2742 
Q 2381 3103 1925 3103 
Q 1469 3103 1208 2742 
Q 947 2381 947 1747 
z
M 2906 525 
Q 2725 213 2448 61 
Q 2172 -91 1784 -91 
Q 1150 -91 751 415 
Q 353 922 353 1747 
Q 353 2572 751 3078 
Q 1150 3584 1784 3584 
Q 2172 3584 2448 3432 
Q 2725 3281 2906 2969 
L 2906 3500 
L 3481 3500 
L 3481 -1331 
L 2906 -1331 
L 2906 525 
z
" transform="scale(0.015625)"/>
     </defs>
     <use xlink:href="#DejaVuSans-53"/>
     <use xlink:href="#DejaVuSans-74" x="63.476562"/>
     <use xlink:href="#DejaVuSans-72" x="102.685547"/>
     <use xlink:href="#DejaVuSans-75" x="143.798828"/>
     <use xlink:href="#DejaVuSans-63" x="207.177734"/>
     <use xlink:href="#DejaVuSans-74" x="262.158203"/>
     <use xlink:href="#DejaVuSans-75" x="301.367188"/>
     <use xlink:href="#DejaVuSans-72" x="364.746094"/>
     <use xlink:href="#DejaVuSans-65" x="403.609375"/>
     <use xlink:href="#DejaVuSans-64" x="465.132812"/>
     <use xlink:href="#DejaVuSans-20" x="528.609375"/>
     <use xlink:href="#DejaVuSans-47" x="560.396484"/>
     <use xlink:href="#DejaVuSans-72" x="637.886719"/>
     <use xlink:href="#DejaVuSans-69" x="679"/>
     <use xlink:href="#DejaVuSans-64" x="706.783203"/>
     <use xlink:href="#DejaVuSans-3a" x="770.259766"/>
     <use xlink:href="#DejaVuSans-20" x="803.951172"/>
     <use xlink:href="#DejaVuSans-52" x="835.738281"/>
     <use xlink:href="#DejaVuSans-65" x="900.720703"/>
     <use xlink:href="#DejaVuSans-63" x="962.244141"/>
     <use xlink:href="#DejaVuSans-74" x="1017.224609"/>
     <use xlink:href="#DejaVuSans-61" x="1056.433594"/>
     <use xlink:href="#DejaVuSans-6e" x="1117.712891"/>
     <use xlink:href="#DejaVuSans-67" x="1181.091797"/>
     <use xlink:href="#DejaVuSans-75" x="1244.568359"/>
     <use xlink:href="#DejaVuSans-6c" x="1307.947266"/>
     <use xlink:href="#DejaVuSans-61" x="1335.730469"/>
     <use xlink:href="#DejaVuSans-72" x="1397.009766"/>
     <use xlink:href="#DejaVuSans-20" x="1438.123047"/>
     <use xlink:href="#DejaVuSans-2b" x="1469.910156"/>
     <use xlink:href="#DejaVuSans-20" x="1553.699219"/>
     <use xlink:href="#DejaVuSans-4f" x="1585.486328"/>
     <use xlink:href="#DejaVuSans-62" x="1664.197266"/>
     <use xlink:href="#DejaVuSans-6c" x="1727.673828"/>
     <use xlink:href="#DejaVuSans-69" x="1755.457031"/>
     <use xlink:href="#DejaVuSans-71" x="1783.240234"/>
     <use xlink:href="#DejaVuSans-75" x="1846.716797"/>
     <use xlink:href="#DejaVuSans-65" x="1910.095703"/>
     <use xlink:href="#DejaVuSans-20" x="1971.619141"/>
     <use xlink:href="#DejaVuSans-2b" x="2003.40625"/>
     <use xlink:href="#DejaVuSans-20" x="2087.195312"/>
     <use xlink:href="#DejaVuSans-52" x="2118.982422"/>
     <use xlink:href="#DejaVuSans-65" x="2183.964844"/>
     <use xlink:href="#DejaVuSans-63" x="2245.488281"/>
     <use xlink:href="#DejaVuSans-74" x="2300.46875"/>
     <use xlink:href="#DejaVuSans-61" x="2339.677734"/>
     <use xlink:href="#DejaVuSans-6e" x="2400.957031"/>
     <use xlink:href="#DejaVuSans-67" x="2464.335938"/>
     <use xlink:href="#DejaVuSans-75" x="2527.8125"/>
     <use xlink:href="#DejaVuSans-6c" x="2591.191406"/>
     <use xlink:href="#DejaVuSans-61" x="2618.974609"/>
     <use xlink:href="#DejaVuSans-72" x="2680.253906"/>
    </g>
   </g>
  </g>
 </g>
 <defs>
  <clipPath id="p5631ba5d14">
   <rect x="90" y="51.84" width="558" height="332.64"/>
  </clipPath>
 </defs>
</svg>
